<svg xmlns="http://www.w3.org/2000/svg" xmlns:xlink="http://www.w3.org/1999/xlink"><symbol id="icon-academy" viewBox="0 0 32 32">
  <path d="M16 0l-12.635 1.323v23.161l12.635 7.516 12.635-7.516v-23.161l-12.505-1.307zM26.979 23.542l-10.979 6.536-10.979-6.536v-9.49l10.932 6.505 0.016 1.182-7.5-4.469-0.010 1.151 7.531 4.526 0.021 1.208-7.531-4.479-0.010 1.146 7.531 4.526 7.604-4.552v-1.151l-0.010 0.005v-3.74l3.385-2.021zM26.974 12.661l-4.391 2.589-6.615-3.938-0.010 1.146 5.651 3.359-0.047 0.031-0.125 0.073-0.802 0.474-4.667-2.776-0.010 1.141 3.682 2.193-0.87 0.583-0.021 0.010-2.781-1.641-0.010 1.146 1.823 1.078-1.859 1.115-10.88-6.469 10.896-6.547zM26.979 11.51l-11.042-6.51-10.917 6.5v-8.688l10.979-1.151 10.984 1.151v8.693z"/>
</symbol><symbol id="icon-add" viewBox="0 0 15 15"><path d="M7.5,0C3.364,0,0,3.364,0,7.5S3.364,15,7.5,15S15,11.636,15,7.5S11.636,0,7.5,0z M7.5,14C3.916,14,1,11.084,1,7.5  S3.916,1,7.5,1S14,3.916,14,7.5S11.084,14,7.5,14z"/><polygon points="8,3.5 7,3.5 7,7 3.5,7 3.5,8 7,8 7,11.5 8,11.5 8,8 11.5,8 11.5,7 8,7 "/></symbol><symbol id="icon-copyright" viewBox="0 0 24 24"><path d="M10.08,10.86C10.13,10.53 10.24,10.24 10.38,10C10.5,9.74 10.72,9.53 10.97,9.37C11.21,9.22 11.5,9.15 11.88,9.14C12.11,9.15 12.32,9.19 12.5,9.27C12.71,9.36 12.89,9.5 13.03,9.63C13.17,9.78 13.28,9.96 13.37,10.16C13.46,10.36 13.5,10.58 13.5,10.8H15.3C15.28,10.33 15.19,9.9 15,9.5C14.85,9.12 14.62,8.78 14.32,8.5C14,8.22 13.66,8 13.24,7.84C12.82,7.68 12.36,7.61 11.85,7.61C11.2,7.61 10.63,7.72 10.15,7.95C9.67,8.18 9.27,8.5 8.95,8.87C8.63,9.26 8.39,9.71 8.24,10.23C8.09,10.75 8,11.29 8,11.87V12.14C8,12.72 8.08,13.26 8.23,13.78C8.38,14.3 8.62,14.75 8.94,15.13C9.26,15.5 9.66,15.82 10.14,16.04C10.62,16.26 11.19,16.38 11.84,16.38C12.31,16.38 12.75,16.3 13.16,16.15C13.57,16 13.93,15.79 14.24,15.5C14.55,15.25 14.8,14.94 15,14.58C15.16,14.22 15.27,13.84 15.28,13.43H13.5C13.5,13.64 13.43,13.83 13.34,14C13.25,14.19 13.13,14.34 13,14.47C12.83,14.6 12.66,14.7 12.46,14.77C12.27,14.84 12.07,14.86 11.86,14.87C11.5,14.86 11.2,14.79 10.97,14.64C10.72,14.5 10.5,14.27 10.38,14C10.24,13.77 10.13,13.47 10.08,13.14C10.03,12.81 10,12.47 10,12.14V11.87C10,11.5 10.03,11.19 10.08,10.86M12,2A10,10 0 0,0 2,12A10,10 0 0,0 12,22A10,10 0 0,0 22,12A10,10 0 0,0 12,2M12,20C7.59,20 4,16.41 4,12C4,7.59 7.59,4 12,4C16.41,4 20,7.59 20,12C20,16.41 16.41,20 12,20Z"/></symbol><symbol id="icon-git" viewBox="0 0 512 512">
<g>
	<path d="M256,0C114.609,0,0,114.609,0,256c0,141.391,114.609,256,256,256c141.391,0,256-114.609,256-256
		C512,114.609,397.391,0,256,0z M256,472c-119.297,0-216-96.703-216-216S136.703,40,256,40s216,96.703,216,216S375.297,472,256,472z
		"/>
	<path d="M336.005,128.769c-26.266,14.312-53.358,2.234-72.891,0c-86.234-9.891-113.641,77.734-50.812,112.859
		c-16.172,7.312-15.109,44.453,2.203,49.733c-40.812,4.078-48.391,54.188-26.5,74.625c26.625,24.845,108.531,23.188,132.547,0
		c16.767-16.219,19.109-49.625,4.422-65.03c-13.391-14.078-80.562-16.203-79.531-38.267c0.719-15.438,25.016-13,39.766-19.141
		c27.734-11.547,44.047-46.109,33.141-72.703c6.188-1,11.47-2.797,17.656-3.812C336.005,154.284,336.005,141.534,336.005,128.769z
		 M229.974,209.128c-32.328-61.344,74.344-56.953,41.984,0C261.35,215.972,240.458,216.659,229.974,209.128z M289.63,329.645
		c2.859,27.5-61.094,28.719-68.5,9.562c-6.219-16.142,1.531-20.72,19.891-24.875C261.816,309.611,287.708,311.236,289.63,329.645z"/>
</g>
<g>
</g>
<g>
</g>
<g>
</g>
<g>
</g>
<g>
</g>
<g>
</g>
<g>
</g>
<g>
</g>
<g>
</g>
<g>
</g>
<g>
</g>
<g>
</g>
<g>
</g>
<g>
</g>
<g>
</g>
</symbol><symbol id="icon-mail" viewBox="0 0 128 128"><title/><path d="M116.73,31.83a3,3,0,0,0-4.2-.61L64.14,67.34a1,1,0,0,1-1.2,0L15.5,31.06a3,3,0,1,0-3.64,4.77L49.16,64.36,12.27,92.16A3,3,0,1,0,15.88,97L54.11,68.14l5.18,4a7,7,0,0,0,8.43.06l5.44-4.06L111.84,97a3,3,0,1,0,3.59-4.81L78.17,64.35,116.12,36A3,3,0,0,0,116.73,31.83Z"/><path d="M113,19H15A15,15,0,0,0,0,34V94a15,15,0,0,0,15,15h98a15,15,0,0,0,15-15V34A15,15,0,0,0,113,19Zm9,75a9,9,0,0,1-9,9H15a9,9,0,0,1-9-9V34a9,9,0,0,1,9-9h98a9,9,0,0,1,9,9Z"/></symbol><symbol id="icon-phone" viewBox="0 0 24 24">
<path d="M20.741,17.218l-0.13-0.162c-1.029-1.301-1.889-1.978-2.627-2.067c-0.638-0.087-1.255,0.354-1.911,0.808l-0.701,0.438
	c-0.084,0.042-0.167,0.076-0.245,0.099c-0.41,0.116-1.445,0.184-2.031-0.352c-0.682-0.624-1.74-1.766-2.563-2.764
	c-0.786-1.033-1.65-2.321-2.101-3.132C8.051,9.399,8.37,8.438,8.583,8.082c0.042-0.07,0.097-0.139,0.158-0.207l0.618-0.571
	c0.009-0.009,0.013-0.02,0.021-0.028C9.386,7.27,9.396,7.272,9.403,7.267c0.558-0.471,1.135-0.956,1.214-1.579
	c0.093-0.732-0.362-1.722-1.393-3.022L9.098,2.504C8.46,1.686,7.495,0.449,6.109,0.653C5.564,0.734,5.077,0.92,4.575,1.235
	C4.57,1.238,4.567,1.244,4.563,1.247C4.559,1.25,4.554,1.25,4.55,1.253L3.851,1.771C3.844,1.775,3.84,1.784,3.833,1.79
	C3.828,1.795,3.82,1.796,3.814,1.801c-0.081,0.068-0.162,0.138-0.242,0.21C2.863,2.643,1.328,4.478,2.375,7.872
	c0.676,2.192,2.07,4.75,4.041,7.412L6.397,15.3l1.087,1.354l0.009-0.007c2.137,2.528,4.312,4.482,6.305,5.665
	c1.33,0.79,2.492,1.051,3.448,1.051c1.258,0,2.159-0.452,2.611-0.746l0.284-0.19c0.032-0.022,0.055-0.053,0.078-0.081l0.619-0.466
	c0.007-0.006,0.011-0.014,0.018-0.02c0.003-0.003,0.008-0.002,0.012-0.005c0.44-0.402,0.745-0.823,0.957-1.322
	C22.374,19.254,21.391,18.029,20.741,17.218z M21.09,20.219c-0.165,0.388-0.406,0.718-0.754,1.038l-0.921,0.693
	c-0.834,0.542-2.617,1.212-5.207-0.326c-1.993-1.183-4.187-3.183-6.346-5.784l-0.584-0.738c-2.033-2.696-3.463-5.278-4.138-7.466
	c-0.877-2.845,0.228-4.371,0.968-5.03c0.075-0.068,0.15-0.131,0.224-0.194l0.003-0.003l0.671-0.497
	C5.414,1.654,5.792,1.51,6.227,1.444c0.929-0.14,1.685,0.84,2.24,1.552l0.13,0.165C9.749,4.614,9.86,5.305,9.824,5.587
	c-0.04,0.313-0.516,0.714-0.936,1.067l-0.059,0.05C8.827,6.706,8.826,6.709,8.824,6.711C8.821,6.713,8.818,6.714,8.815,6.716
	L8.176,7.307C8.172,7.311,8.17,7.316,8.166,7.321S8.154,7.328,8.15,7.333C8.051,7.444,7.966,7.555,7.897,7.67
	c-0.359,0.601-0.698,1.843-0.163,2.804c0.467,0.84,1.356,2.167,2.173,3.239c0.854,1.036,1.943,2.212,2.649,2.857
	c0.529,0.483,1.265,0.645,1.902,0.645c0.341,0,0.654-0.047,0.891-0.114c0.125-0.036,0.254-0.088,0.387-0.153
	c0.008-0.004,0.012-0.011,0.02-0.016c0.004-0.002,0.01-0.001,0.014-0.004l0.742-0.464c0.024-0.016,0.04-0.037,0.06-0.057l0.009,0.01
	c0.457-0.317,0.978-0.689,1.304-0.635c0.289,0.035,0.945,0.313,2.099,1.77l0.133,0.167C20.679,18.42,21.449,19.38,21.09,20.219z"/>
</symbol><symbol id="icon-telegram" viewBox="0 0 32 32"><g id="telegram"><g><path d="M12.408,28.188c-0.865,0-0.717-0.327-1.016-1.148l-2.54-8.362L28.408,7.076L12.408,28.188z" fill="#ECEFF1"/><path d="M12.408,28.188c0.667,0,0.962-0.305,1.333-0.667l3.556-3.458l-4.436-2.674L12.408,28.188z" fill="#CFD8DC"/><path d="M12.861,21.391l10.747,7.94c1.228,0.676,2.111,0.326,2.417-1.139L30.4,7.577    c0.448-1.796-0.684-2.61-1.858-2.078L2.854,15.405c-1.754,0.703-1.742,1.682-0.32,2.117l6.592,2.058l15.261-9.628    c0.721-0.437,1.382-0.202,0.84,0.28L12.861,21.391z" fill="#FFFFFF"/><path d="M24.687,30.163c-0.402,0-0.843-0.132-1.32-0.395l-10.803-7.976c-0.121-0.089-0.195-0.228-0.203-0.378    c-0.007-0.15,0.053-0.295,0.165-0.396L25.322,9.503c0.205-0.185,0.521-0.169,0.706,0.037c0.185,0.205,0.168,0.521-0.037,0.706    l-12.34,11.106l10.254,7.576c0.271,0.145,0.729,0.329,1.055,0.178c0.332-0.152,0.496-0.637,0.576-1.017l4.375-20.617    c0.17-0.681,0.088-1.229-0.215-1.481c-0.231-0.192-0.575-0.206-0.947-0.038L3.033,15.871C2.244,16.188,1.996,16.514,2,16.622    c0.003,0.071,0.173,0.267,0.68,0.422l6.375,1.99l6.999-4.416c0.234-0.146,0.542-0.077,0.689,0.156    c0.147,0.233,0.078,0.542-0.156,0.689l-7.194,4.539C9.269,20.08,9.116,20.1,8.977,20.057l-6.592-2.058    c-1.17-0.358-1.37-0.99-1.384-1.335c-0.02-0.473,0.253-1.157,1.667-1.723l25.695-9.908c0.697-0.318,1.445-0.25,1.974,0.191    c0.613,0.511,0.813,1.413,0.549,2.474l-4.371,20.598c-0.184,0.878-0.566,1.457-1.137,1.719    C25.163,30.114,24.933,30.163,24.687,30.163z" fill="#455A64"/></g><path d="M24.687,30.163c-0.402,0-0.843-0.132-1.32-0.395l-6.72-4.959c-0.222-0.164-0.27-0.478-0.105-0.699   c0.164-0.222,0.478-0.27,0.699-0.105l6.664,4.923c0.271,0.145,0.729,0.329,1.055,0.178c0.332-0.152,0.496-0.637,0.576-1.017   l4.375-20.617c0.17-0.681,0.088-1.229-0.215-1.481c-0.231-0.192-0.575-0.206-0.947-0.038L3.033,15.871   C2.244,16.188,1.996,16.514,2,16.622c0.003,0.071,0.173,0.267,0.68,0.422l6.594,2.058c0.158,0.049,0.281,0.174,0.33,0.332   l2.267,7.461c0.061,0.167,0.108,0.333,0.149,0.477c0.032,0.114,0.072,0.256,0.099,0.298c-0.004-0.005,0.076,0.019,0.289,0.02   c0.447,0,0.617-0.167,0.957-0.498l1.66-1.614c0.198-0.194,0.514-0.188,0.707,0.01c0.192,0.198,0.188,0.515-0.01,0.707L14.09,27.88   c-0.402,0.393-0.828,0.809-1.682,0.809c-0.98,0-1.178-0.434-1.351-1.046c-0.035-0.124-0.075-0.267-0.135-0.432l-2.198-7.233   l-6.339-1.979c-1.17-0.358-1.37-0.99-1.384-1.335c-0.02-0.473,0.253-1.157,1.667-1.723l25.695-9.908   c0.697-0.318,1.445-0.25,1.974,0.191c0.613,0.511,0.813,1.413,0.549,2.474l-4.371,20.598c-0.184,0.878-0.566,1.457-1.137,1.719   C25.163,30.114,24.933,30.163,24.687,30.163z" fill="#455A64"/><g><g><g><g><g><g><path d="M18.5,14c0,0.275-0.225,0.5-0.5,0.5l0,0c-0.275,0-0.5-0.225-0.5-0.5l0,0c0-0.275,0.225-0.5,0.5-0.5         l0,0C18.275,13.5,18.5,13.725,18.5,14L18.5,14z" fill="#455A64"/></g></g></g></g></g></g></g></symbol></svg>