<svg xmlns="http://www.w3.org/2000/svg" width="512" height="512"><path d="M256 0C114.609 0 0 114.609 0 256c0 141.391 114.609 256 256 256 141.391 0 256-114.609 256-256C512 114.609 397.391 0 256 0zm0 472c-119.297 0-216-96.703-216-216S136.703 40 256 40s216 96.703 216 216-96.703 216-216 216z"/><path d="M336.005 128.769c-26.266 14.312-53.358 2.234-72.891 0-86.234-9.891-113.641 77.734-50.812 112.859-16.172 7.312-15.109 44.453 2.203 49.733-40.812 4.078-48.391 54.188-26.5 74.625 26.625 24.845 108.531 23.188 132.547 0 16.767-16.219 19.109-49.625 4.422-65.03-13.391-14.078-80.562-16.203-79.531-38.267.719-15.438 25.016-13 39.766-19.141 27.734-11.547 44.047-46.109 33.141-72.703 6.188-1 11.47-2.797 17.656-3.812l-.001-38.264zm-106.031 80.359c-32.328-61.344 74.344-56.953 41.984 0-10.608 6.844-31.5 7.531-41.984 0zm59.656 120.517c2.859 27.5-61.094 28.719-68.5 9.562-6.219-16.142 1.531-20.72 19.891-24.875 20.795-4.721 46.687-3.096 48.609 15.313z"/></svg>