<svg data-bbox="0.2 0.3 200 200" xmlns="http://www.w3.org/2000/svg" viewBox="0.2 0.3 200 200"><path d="M90.6 46.6C79.8 48.5 70.2 55 62.7 61H79c3.2-3 7.1-10.3 11.6-14.4zM75.8 67H57.3C51 77 47.1 85 46.7 97h22.1c.2-12 2.7-20 7-30zm-7 35h-22c.7 11 3.9 18 8.8 26h19.1c-3.4-8-5.4-15-5.9-26zm49.7 26c3.7-8 6-15 6.5-26H75c.5 11 2.8 18 6.5 26h37zm18.8-67c-7.5-6-17.2-12.5-27.9-14.4 4.5 4.2 8.4 11.4 11.6 14.4h16.3zm-20 6H82.6c-4.7 10-7.4 18-7.7 30H125c-.3-12-3-20-7.7-30zm-3.7-6c-3.8-6-8.4-10.4-13.7-14.2C94.7 50.6 90 55 86.3 61h27.3zm17.6 36h22.1c-.4-12-4.3-20-10.6-30h-18.5c4.2 10 6.7 18 7 30z"/><path d="M100.2.3C45 .3.2 45 .2 100.3c0 55.2 44.8 100 100 100s100-44.8 100-100c0-55.3-44.7-100-100-100zm-.2 158.3c-32.8 0-59.5-26.7-59.5-59.5S67.2 39.6 100 39.6s59.5 26.7 59.5 59.5c-.1 32.8-26.8 59.5-59.5 59.5z"/><path d="M77.7 134H60.5c7.8 9 18.2 14.6 30.1 16.7-5.2-4.8-9.5-11.7-12.9-16.7zm47.5-6h19.1c5-8 8.1-15 8.8-26h-22c-.5 11-2.5 18-5.9 26zm-40.4 6c4 8 9.1 12.2 15.2 16.5 6-4.4 11.1-8.5 15.2-16.5H84.8zm24.6 16.7c11.8-2.1 22.3-7.7 30.1-16.7h-17.2c-3.5 5-7.8 11.9-12.9 16.7z"/></svg>