<svg baseProfile="tiny" xmlns="http://www.w3.org/2000/svg" width="24" height="24"><path d="M20.741 17.218l-.13-.162c-1.029-1.301-1.889-1.978-2.627-2.067-.638-.087-1.255.354-1.911.808l-.701.438a1.515 1.515 0 01-.245.099c-.41.116-1.445.184-2.031-.352-.682-.624-1.74-1.766-2.563-2.764-.786-1.033-1.65-2.321-2.101-3.132-.381-.687-.062-1.648.151-2.004.042-.07.097-.139.158-.207l.618-.571c.009-.009.013-.02.021-.028.006-.006.016-.004.023-.009.558-.471 1.135-.956 1.214-1.579.093-.732-.362-1.722-1.393-3.022l-.126-.162C8.46 1.686 7.495.449 6.109.653a3.876 3.876 0 00-1.534.582c-.005.003-.008.009-.012.012-.004.003-.009.003-.013.006l-.699.518c-.007.004-.011.013-.018.019-.005.005-.013.006-.019.011a9.309 9.309 0 00-.242.21c-.709.632-2.244 2.467-1.197 5.861.676 2.192 2.07 4.75 4.041 7.412l-.019.016 1.087 1.354.009-.007c2.137 2.528 4.312 4.482 6.305 5.665 1.33.79 2.492 1.051 3.448 1.051a4.798 4.798 0 002.611-.746l.284-.19c.032-.022.055-.053.078-.081l.619-.466c.007-.006.011-.014.018-.02.003-.003.008-.002.012-.005.44-.402.745-.823.957-1.322.549-1.279-.434-2.504-1.084-3.315zm.349 3.001a2.95 2.95 0 01-.754 1.038l-.921.693c-.834.542-2.617 1.212-5.207-.326-1.993-1.183-4.187-3.183-6.346-5.784l-.584-.738C5.245 12.406 3.815 9.824 3.14 7.636c-.877-2.845.228-4.371.968-5.03.075-.068.15-.131.224-.194l.003-.003.671-.497a3.05 3.05 0 011.221-.468c.929-.14 1.685.84 2.24 1.552l.13.165C9.749 4.614 9.86 5.305 9.824 5.587c-.04.313-.516.714-.936 1.067l-.059.05-.005.007-.009.005-.639.591-.01.014c-.004.005-.012.007-.016.012a2.246 2.246 0 00-.253.337c-.359.601-.698 1.843-.163 2.804.467.84 1.356 2.167 2.173 3.239.854 1.036 1.943 2.212 2.649 2.857.529.483 1.265.645 1.902.645.341 0 .654-.047.891-.114.125-.036.254-.088.387-.153.008-.004.012-.011.02-.016.004-.002.01-.001.014-.004l.742-.464c.024-.016.04-.037.06-.057l.009.01c.457-.317.978-.689 1.304-.635.289.035.945.313 2.099 1.77l.133.167c.562.701 1.332 1.661.973 2.5z"/></svg>